<?xml version="1.0" encoding="UTF-8"?>
<svg width="1417px" height="379px" viewBox="0 0 1417 379" version="1.1" xmlns="http://www.w3.org/2000/svg" xmlns:xlink="http://www.w3.org/1999/xlink">
    <title>Studio Hyperdrive logo full</title>
    <defs></defs>
    <g id="logo-full-container" stroke="none" stroke-width="1" fill="none" fill-rule="evenodd" transform="translate(-252.000000, -351.000000)">
        <g id="logo-full-group" transform="translate(252.000000, 351.000000)" fill="#ffffff">
            <path d="M514.232,121.2011 C507.155,121.2011 493.002,117.2091 491.552,97.0701 L470.325,97.0701 C470.687,123.0141 487.741,139.3461 514.413,139.3461 C543.08,139.3461 557.777,120.4751 557.777,98.7021 C557.777,76.9301 542.173,68.4001 525.482,61.3271 C503.889,53.3411 493.912,50.0771 493.912,37.0121 C493.912,25.5811 503.345,18.1411 514.232,18.1411 C529.654,18.1411 532.921,29.7541 534.371,37.0121 L555.42,37.0121 C553.785,9.4331 532.196,0.0001 514.957,0.0001 C493.912,0.0001 472.5,13.6061 472.682,38.6461 C472.682,63.8651 496.087,71.6671 506.611,75.1151 C523.847,81.4661 536.55,84.9141 536.55,99.7901 C536.55,111.7671 526.207,121.2011 514.232,121.2011" id="letter-s"></path>
            <polygon id="letter-t" points="601.877 136.8046 601.877 52.7966 620.929 52.7966 620.929 38.1026 601.877 38.1026 601.877 2.5376 583.007 2.5376 583.007 38.1026 565.225 38.1026 565.225 52.7966 583.007 52.7966 583.007 136.8046"></polygon>
            <path d="M674.8194,139.7079 C692.4204,139.8899 703.4884,131.7259 708.2054,121.5629 L708.2054,136.8049 L725.9874,136.8049 L725.9874,38.1029 L707.1174,38.1029 L707.1174,93.2599 C707.1174,110.1329 698.5904,121.9259 680.0834,122.1069 C660.6694,122.1069 653.7734,109.4069 653.7734,91.6249 L653.7734,38.1029 L634.9034,38.1029 L634.9034,95.9789 C634.9034,116.4839 643.0684,139.5269 674.8194,139.7079" id="Fill-9"></path>
            <path d="M763.9234,87.2704 C763.9234,68.7634 777.7114,52.7964 798.5784,52.7964 C808.1934,52.7964 816.7204,56.4254 822.8904,62.5954 C829.0574,68.5824 832.8684,77.1124 832.8684,86.9084 C833.2334,96.7074 829.6044,105.4164 823.2534,111.7674 C817.0834,118.1164 808.1934,122.1074 798.5784,122.1074 C776.8044,122.1074 764.1044,105.5964 763.9234,87.4524 L763.9234,87.2704 Z M795.6744,139.7084 C815.9954,139.7084 827.0634,129.7274 832.5054,119.5694 L832.5054,136.8044 L850.6504,136.8044 L850.6504,2.5384 L831.7804,2.5384 L831.7804,36.8314 L831.7804,54.2494 C827.7884,46.4484 815.4514,35.1994 795.3124,35.1994 C767.1874,35.1994 745.0534,56.6074 745.0534,87.2704 C745.0534,115.7584 764.6484,139.7084 795.6744,139.7084 Z" id="Fill-15"></path>
            <polygon id="Fill-17" points="875.702 22.496 894.572 22.496 894.572 2.538 875.702 2.538"></polygon>
            <polygon id="Fill-20" points="875.702 136.804 894.572 136.804 894.572 38.102 875.702 38.102"></polygon>
            <path d="M932.4966,87.6337 L932.4966,87.4517 C932.4966,67.6757 947.3716,52.9787 966.2426,52.9787 C985.1126,52.9787 999.9906,67.6757 999.9906,87.4517 C999.9906,107.2287 985.1126,121.9257 966.2426,121.9257 C947.3716,121.9257 932.4966,107.2287 932.4966,87.6337 M1018.8606,87.4517 C1018.8606,60.9617 999.4466,35.1987 966.2426,35.1987 C933.0406,35.1987 913.6266,60.9617 913.6266,87.2707 L913.6266,87.4517 C913.6266,113.9427 933.0406,139.5277 966.2426,139.5277 C999.4466,139.5277 1018.8606,113.9427 1018.8606,87.4517" id="Fill-22"></path>
            <polygon id="Fill-24" points="556.3262 231.4599 498.4472 231.4599 498.4472 174.8499 477.0352 174.8499 477.0352 309.1159 498.4472 309.1159 498.4472 250.3299 556.3262 250.3299 556.3262 309.1159 577.7352 309.1159 577.7352 174.8499 556.3262 174.8499"></polygon>
            <polygon id="Fill-26" points="639.2603 282.6249 612.0413 210.4109 591.7213 210.4109 629.4613 306.2119 613.1323 345.0399 633.2713 345.0399 687.1593 210.4109 666.8393 210.4109"></polygon>
            <path d="M786.2383,259.7636 C786.2383,278.9956 771.9043,294.4186 751.9463,294.4186 C742.3283,294.4186 733.6193,290.6086 727.4493,284.4416 C721.2823,278.2716 717.6533,269.7436 717.6533,259.9456 C717.6533,250.1486 721.2823,241.4406 727.2683,235.2706 C733.4383,228.9186 741.9653,225.1086 751.7643,225.1086 C774.8073,225.1086 786.2383,243.4346 786.2383,259.5816 L786.2383,259.7636 Z M755.3933,207.5106 C737.7923,207.5106 725.0923,215.8566 717.6533,227.6496 L717.6533,210.4106 L699.6893,210.4106 L699.6893,345.0396 L718.5593,345.0396 L718.5593,309.1166 L718.5593,292.7866 C722.9143,300.7706 735.0703,312.0196 755.5743,312.0196 C785.1473,312.0196 805.2863,288.2516 805.2863,260.3076 C805.2863,235.8146 789.3203,207.5106 755.3933,207.5106 Z" id="Fill-28"></path>
            <path d="M837.0523,251.0556 C837.9623,237.6296 850.4803,223.6586 869.7133,223.6586 C888.4023,223.2956 901.4653,237.9926 902.3713,251.0556 L837.0523,251.0556 Z M869.7133,207.5106 C839.7753,207.5106 817.6383,231.6416 817.6383,259.9456 C817.6383,286.0736 837.5993,312.0196 869.8943,312.0196 C879.8723,312.0196 889.6713,309.2976 898.0173,303.6736 C906.3633,298.2296 913.2583,290.0646 917.9753,279.1776 L898.3793,279.1776 C892.9373,289.5206 883.1383,295.8716 869.8943,295.8716 C855.0163,295.8716 837.5993,285.7106 836.6903,265.7526 L921.0603,265.7526 C922.6943,249.2426 917.7933,233.8206 906.1813,222.0266 C896.7483,212.7716 883.8663,207.5106 869.7133,207.5106 Z" id="Fill-30"></path>
            <path d="M957.3585,224.9276 L957.3585,210.4106 L939.5765,210.4106 L939.5765,309.1156 L958.4465,309.1156 L958.4465,255.7726 C958.4465,236.1766 967.6985,226.3806 985.4815,226.3806 L986.7505,226.3806 L986.7505,207.5106 C973.3245,207.6916 962.9815,213.3156 957.3585,224.9276" id="Fill-32"></path>
            <path d="M1068.4092,284.079 C1062.2392,290.428 1053.3492,294.419 1043.7342,294.419 C1021.9602,294.419 1009.2602,277.908 1009.0792,259.764 L1009.0792,259.582 C1009.0792,241.075 1022.8672,225.108 1043.7342,225.108 C1053.3492,225.108 1061.8762,228.737 1068.0462,234.907 C1074.2132,240.893 1078.0242,249.424 1078.0242,259.22 C1078.3892,269.018 1074.7602,277.727 1068.4092,284.079 Z M1076.9362,209.142 L1076.9362,226.561 C1072.9442,218.76 1060.6072,207.511 1040.4682,207.511 C1012.3432,207.511 990.2092,228.919 990.2092,259.582 C990.2092,288.07 1009.8042,312.019 1040.8302,312.019 C1061.1512,312.019 1072.2192,302.039 1077.6612,291.881 L1077.6612,309.116 L1095.8062,309.116 L1095.8062,174.85 L1076.9362,174.85 L1076.9362,209.142 Z" id="Fill-34"></path>
            <path d="M1138.6401,224.9276 L1138.6401,210.4106 L1120.8581,210.4106 L1120.8581,309.1156 L1139.7281,309.1156 L1139.7281,255.7726 C1139.7281,236.1766 1148.9801,226.3806 1166.7631,226.3806 L1168.0321,226.3806 L1168.0321,207.5106 C1154.6061,207.6916 1144.2641,213.3156 1138.6401,224.9276" id="Fill-36"></path>
            <polygon id="Fill-38" points="1182.919 195.808 1201.789 195.808 1201.789 175.85 1182.919 175.85"></polygon>
            <polygon id="Fill-40" points="1182.919 309.116 1201.789 309.116 1201.789 210.411 1182.919 210.411"></polygon>
            <polygon id="Fill-43" points="1263.3003 285.5292 1235.9033 210.4112 1216.1263 210.4112 1253.8633 309.1162 1272.7343 309.1162 1310.4743 210.4112 1290.6973 210.4112"></polygon>
            <path d="M1332.2563,251.0556 C1333.1663,237.6296 1345.6843,223.6586 1364.9173,223.6586 C1383.6063,223.2956 1396.6683,237.9926 1397.5753,251.0556 L1332.2563,251.0556 Z M1364.9173,207.5106 C1334.9793,207.5106 1312.8423,231.6416 1312.8423,259.9456 C1312.8423,286.0736 1332.8033,312.0196 1365.0983,312.0196 C1375.0763,312.0196 1384.8753,309.2976 1393.2203,303.6736 C1401.5673,298.2296 1408.4623,290.0646 1413.1783,279.1776 L1393.5833,279.1776 C1388.1413,289.5206 1378.3423,295.8716 1365.0983,295.8716 C1350.2203,295.8716 1332.8033,285.7106 1331.8943,265.7526 L1416.2643,265.7526 C1417.8983,249.2426 1412.9973,233.8206 1401.3853,222.0266 C1391.9513,212.7716 1379.0703,207.5106 1364.9173,207.5106 Z" id="Fill-44"></path>
            <path d="M344.1949,101.5516 C352.2609,118.2936 356.7809,137.0656 356.7809,156.8936 C356.7809,227.4026 299.6229,284.5606 229.1149,284.5606 C201.8109,284.5606 176.5129,275.9846 155.7569,261.3856 L133.6829,280.4786 C160.0729,300.8866 193.1729,313.0386 229.1149,313.0386 C315.3519,313.0386 385.2599,243.1296 385.2599,156.8936 C385.2599,130.2306 378.5699,105.1316 366.7869,83.1736 L344.1949,101.5516 Z" id="Fill-46"></path>
            <path d="M122.8284,227.6298 C109.3254,207.3808 101.4484,183.0588 101.4484,156.8938 C101.4484,86.3858 158.6074,29.2278 229.1154,29.2278 C250.5614,29.2278 270.7674,34.5248 288.5104,43.8668 L307.4344,21.7898 C284.4114,8.4138 257.6594,0.7488 229.1154,0.7488 C142.8784,0.7488 72.9704,70.6568 72.9704,156.8938 C72.9704,191.5258 84.2524,223.5188 103.3314,249.4128 L122.8284,227.6298 Z" id="Fill-47"></path>
            <path d="M0.0001,378.7997 L376.3741,51.7997 C376.3741,51.7997 402.8961,26.5167 383.3961,7.3597 C364.1481,-11.5493 340.4791,14.1527 340.4791,14.1527 L0.0001,378.7997 Z" id="Fill-48"></path>
        </g>
    </g>
</svg>